<svg width="20" height="22" viewBox="0 0 20 22" fill="none" xmlns="http://www.w3.org/2000/svg">
<path fill-rule="evenodd" clip-rule="evenodd" d="M9.7127 0.0643611C9.12254 0.376624 0.386924 5.27646 0.272015 5.35966C-0.0158569 5.56802 0.000160621 5.23055 0.000160621 11.086C0.000160621 16.9414 -0.0158569 16.6039 0.272015 16.8123C0.353695 16.8714 2.46632 18.0628 4.96672 19.4599L9.51288 22H10H10.4871L15.0333 19.4599C17.5337 18.0628 19.6463 16.8714 19.728 16.8123C20.0159 16.6039 19.9998 16.9414 19.9998 11.086C19.9998 5.41994 20.0059 5.58742 19.7958 5.40474C19.7498 5.36477 17.5817 4.13928 14.9778 2.68148C9.89496 -0.164184 10.0237 -0.100216 9.7127 0.0643611ZM14.0136 3.64187C16.1905 4.85952 17.9551 5.87084 17.9349 5.88925C17.8693 5.94902 10.113 10.2758 10.0355 10.2958C9.95053 10.3179 2.01349 5.89609 2.05845 5.8517C2.12654 5.78444 9.93987 1.43035 9.99451 1.42922C10.028 1.42848 11.8366 2.42417 14.0136 3.64187ZM5.35786 9.23448L9.33315 11.4541L9.3347 15.9301L9.33629 20.4061L9.19249 20.3237C9.11338 20.2784 7.31146 19.2701 5.18813 18.083L1.32757 15.9247V11.4698C1.32757 9.01958 1.33996 7.01487 1.35509 7.01487C1.37023 7.01487 3.17148 8.01372 5.35786 9.23448ZM18.6724 11.4698V15.9247L14.8119 18.083C12.6885 19.2701 10.8866 20.2784 10.8075 20.3237L10.6637 20.4061L10.6653 15.9301L10.6668 11.4541L14.6365 9.23583C16.8198 8.0158 18.621 7.01694 18.6392 7.01621C18.6575 7.01547 18.6724 9.01958 18.6724 11.4698Z" fill="white"/>
</svg>
